<?xml version="1.0" encoding="UTF-8"?><svg id="Layer_1" xmlns="http://www.w3.org/2000/svg" viewBox="0 0 1080 1080"><defs><style>.cls-1{fill:#fff;}.cls-2{fill:#c15505;fill-rule:evenodd;}</style></defs><path class="cls-2" d="M540,0C108,0,0,108,0,540s108,540,540,540,540-108,540-540S972,0,540,0Z"/><path class="cls-1" d="M243.02,486.11v-148.26c0-38.05,9-48.47,41.88-48.47h4.25v-54.62h-4.25c-27.1,0-47.5,8.89-60.64,26.41-10.52,14.03-16.09,33.71-16.09,56.91v168.03c0,22.5-14.25,39.55-43.55,52.11l-9.11,3.9,9.11,3.9c29.31,12.56,43.55,29.6,43.55,52.11v168.03c0,23.2,5.56,42.88,16.09,56.91,13.14,17.52,33.55,26.41,60.64,26.41h4.25v-54.62h-4.25c-15.12,0-26.29-4.94-33.19-14.68-5.77-8.14-8.69-19.51-8.69-33.79v-148.26c0-19.89-14.14-38.71-42.06-56.01,27.92-17.3,42.06-36.12,42.06-56.01Z"/><path class="cls-1" d="M915.39,533.97c-29.31-12.56-43.55-29.6-43.55-52.11v-168.03c0-23.2-5.56-42.88-16.09-56.91-13.14-17.52-33.55-26.41-60.64-26.41h-4.25v54.62h4.25c32.88,0,41.88,10.42,41.88,48.47v148.26c0,19.89,14.14,38.71,42.07,56.01-27.92,17.3-42.07,36.12-42.07,56.01v148.26c0,14.28-2.92,25.64-8.69,33.79-6.9,9.74-18.07,14.68-33.19,14.68h-4.25v54.62h4.25c27.1,0,47.5-8.88,60.64-26.41,10.52-14.03,16.09-33.71,16.09-56.91v-168.03c0-22.5,14.25-39.55,43.55-52.11l9.11-3.9-9.11-3.9Z"/><path class="cls-1" d="M685.46,335.87c32.23,0,58.44,26.21,58.44,58.44v292.19c0,32.23-26.21,58.44-58.44,58.44h-292.19l-5.94-.27c-29.49-3.01-52.5-27.94-52.5-58.17v-292.19c0-32.23,26.21-58.44,58.44-58.44h292.19ZM378.66,591.54v94.96c0,8.04,6.57,14.61,14.61,14.61h124.18v-109.57h-138.79ZM561.28,591.54v109.57h124.18c8.04,0,14.61-6.57,14.61-14.61v-94.96h-138.79ZM378.66,547.71h138.79v-94.96h-138.79v94.96ZM561.28,547.71h138.79v-94.96h-138.79v94.96Z"/></svg>